<svg xmlns:dc="http://purl.org/dc/elements/1.1/" xmlns:cc="http://creativecommons.org/ns#" xmlns:rdf="http://www.w3.org/1999/02/22-rdf-syntax-ns#" xmlns:svg="http://www.w3.org/2000/svg" xmlns="http://www.w3.org/2000/svg" xmlns:sodipodi="http://sodipodi.sourceforge.net/DTD/sodipodi-0.dtd" xmlns:inkscape="http://www.inkscape.org/namespaces/inkscape" version="1.1" x="0px" y="0px" viewBox="0 0 100 125"><g transform="translate(0,-952.36218)"><path style="text-indent:0;text-transform:none;direction:ltr;block-progression:tb;baseline-shift:baseline;color:#000000;enable-background:accumulate;" d="M 7.8125,958.36438 A 2.0002,2.00015 0 0 0 6,960.36433 l 0,83.99787 a 2.0002,2.00015 0 0 0 2,2 l 84,0 a 2.0002,2.00015 0 0 0 2,-2 l 0,-41.9989 a 2.0002,2.00015 0 1 0 -4,0 l 0,39.999 -80,0 0,-79.99802 40,0 a 2.0002,2.00015 0 1 0 0,-3.9999 l -42,0 a 2.0002,2.00015 0 0 0 -0.1875,0 z m 58,0 A 2.0021961,2.0021461 0 1 0 66,962.36428 l 21.1875,0 -44.59375,44.59262 a 2.0002,2.00015 0 1 0 2.8125,2.8124 L 90,965.17671 l 0,21.18697 a 2.0002,2.00015 0 1 0 4,0 l 0,-25.99935 a 2.0002,2.00015 0 0 0 -2,-1.99995 l -26,0 a 2.0002,2.00015 0 0 0 -0.1875,0 z" fill="#000000" fill-opacity="1" stroke="none" marker="none" visibility="visible" display="inline" overflow="visible"/></g><text x="0" y="115" fill="#000000" font-size="5px" font-weight="bold" font-family="'Helvetica Neue', Helvetica, Arial-Unicode, Arial, Sans-serif">Created by sevgenjory</text><text x="0" y="120" fill="#000000" font-size="5px" font-weight="bold" font-family="'Helvetica Neue', Helvetica, Arial-Unicode, Arial, Sans-serif">from the Noun Project</text></svg>